<?xml version="1.0" encoding="UTF-8" standalone="no"?>
<!DOCTYPE svg PUBLIC "-//W3C//DTD SVG 1.1//EN"
 "http://www.w3.org/Graphics/SVG/1.1/DTD/svg11.dtd">
<!-- Generated by graphviz version 2.43.0 (0)
 -->
<!-- Title: %3 Pages: 1 -->
<svg width="105pt" height="764pt"
 viewBox="0.00 0.00 105.49 764.00" xmlns="http://www.w3.org/2000/svg" xmlns:xlink="http://www.w3.org/1999/xlink">
<g id="graph0" class="graph" transform="scale(1 1) rotate(0) translate(4 760)">
<title>%3</title>
<polygon fill="white" stroke="transparent" points="-4,4 -4,-760 101.49,-760 101.49,4 -4,4"/>
<!-- [5, 5, 5, 5] -->
<g id="node1" class="node">
<title>[5, 5, 5, 5]</title>
<ellipse fill="none" stroke="black" cx="48.75" cy="-738" rx="48.99" ry="18"/>
<text text-anchor="middle" x="48.75" y="-734.3" font-family="Times,serif" font-size="14.00">[5, 5, 5, 5]</text>
</g>
<!-- [4, 5, 5, 5] -->
<g id="node2" class="node">
<title>[4, 5, 5, 5]</title>
<ellipse fill="none" stroke="black" cx="48.75" cy="-666" rx="48.99" ry="18"/>
<text text-anchor="middle" x="48.75" y="-662.3" font-family="Times,serif" font-size="14.00">[4, 5, 5, 5]</text>
</g>
<!-- [5, 5, 5, 5]&#45;&gt;[4, 5, 5, 5] -->
<g id="edge1" class="edge">
<title>[5, 5, 5, 5]&#45;&gt;[4, 5, 5, 5]</title>
<path fill="none" stroke="black" d="M48.75,-719.7C48.75,-711.98 48.75,-702.71 48.75,-694.11"/>
<polygon fill="black" stroke="black" points="52.25,-694.1 48.75,-684.1 45.25,-694.1 52.25,-694.1"/>
</g>
<!-- [3, 5, 5, 5] -->
<g id="node3" class="node">
<title>[3, 5, 5, 5]</title>
<ellipse fill="none" stroke="black" cx="48.75" cy="-594" rx="48.99" ry="18"/>
<text text-anchor="middle" x="48.75" y="-590.3" font-family="Times,serif" font-size="14.00">[3, 5, 5, 5]</text>
</g>
<!-- [4, 5, 5, 5]&#45;&gt;[3, 5, 5, 5] -->
<g id="edge2" class="edge">
<title>[4, 5, 5, 5]&#45;&gt;[3, 5, 5, 5]</title>
<path fill="none" stroke="black" d="M48.75,-647.7C48.75,-639.98 48.75,-630.71 48.75,-622.11"/>
<polygon fill="black" stroke="black" points="52.25,-622.1 48.75,-612.1 45.25,-622.1 52.25,-622.1"/>
</g>
<!-- [2, 5, 5, 5] -->
<g id="node4" class="node">
<title>[2, 5, 5, 5]</title>
<ellipse fill="none" stroke="black" cx="48.75" cy="-522" rx="48.99" ry="18"/>
<text text-anchor="middle" x="48.75" y="-518.3" font-family="Times,serif" font-size="14.00">[2, 5, 5, 5]</text>
</g>
<!-- [3, 5, 5, 5]&#45;&gt;[2, 5, 5, 5] -->
<g id="edge3" class="edge">
<title>[3, 5, 5, 5]&#45;&gt;[2, 5, 5, 5]</title>
<path fill="none" stroke="black" d="M48.75,-575.7C48.75,-567.98 48.75,-558.71 48.75,-550.11"/>
<polygon fill="black" stroke="black" points="52.25,-550.1 48.75,-540.1 45.25,-550.1 52.25,-550.1"/>
</g>
<!-- [1, 5, 5, 5] -->
<g id="node5" class="node">
<title>[1, 5, 5, 5]</title>
<ellipse fill="none" stroke="black" cx="48.75" cy="-450" rx="48.99" ry="18"/>
<text text-anchor="middle" x="48.75" y="-446.3" font-family="Times,serif" font-size="14.00">[1, 5, 5, 5]</text>
</g>
<!-- [2, 5, 5, 5]&#45;&gt;[1, 5, 5, 5] -->
<g id="edge4" class="edge">
<title>[2, 5, 5, 5]&#45;&gt;[1, 5, 5, 5]</title>
<path fill="none" stroke="black" d="M48.75,-503.7C48.75,-495.98 48.75,-486.71 48.75,-478.11"/>
<polygon fill="black" stroke="black" points="52.25,-478.1 48.75,-468.1 45.25,-478.1 52.25,-478.1"/>
</g>
<!-- [1, 4, 5, 5] -->
<g id="node6" class="node">
<title>[1, 4, 5, 5]</title>
<ellipse fill="none" stroke="black" cx="48.75" cy="-378" rx="48.99" ry="18"/>
<text text-anchor="middle" x="48.75" y="-374.3" font-family="Times,serif" font-size="14.00">[1, 4, 5, 5]</text>
</g>
<!-- [1, 5, 5, 5]&#45;&gt;[1, 4, 5, 5] -->
<g id="edge5" class="edge">
<title>[1, 5, 5, 5]&#45;&gt;[1, 4, 5, 5]</title>
<path fill="none" stroke="black" d="M48.75,-431.7C48.75,-423.98 48.75,-414.71 48.75,-406.11"/>
<polygon fill="black" stroke="black" points="52.25,-406.1 48.75,-396.1 45.25,-406.1 52.25,-406.1"/>
</g>
<!-- [1, 3, 5, 5] -->
<g id="node7" class="node">
<title>[1, 3, 5, 5]</title>
<ellipse fill="none" stroke="black" cx="48.75" cy="-306" rx="48.99" ry="18"/>
<text text-anchor="middle" x="48.75" y="-302.3" font-family="Times,serif" font-size="14.00">[1, 3, 5, 5]</text>
</g>
<!-- [1, 4, 5, 5]&#45;&gt;[1, 3, 5, 5] -->
<g id="edge6" class="edge">
<title>[1, 4, 5, 5]&#45;&gt;[1, 3, 5, 5]</title>
<path fill="none" stroke="black" d="M48.75,-359.7C48.75,-351.98 48.75,-342.71 48.75,-334.11"/>
<polygon fill="black" stroke="black" points="52.25,-334.1 48.75,-324.1 45.25,-334.1 52.25,-334.1"/>
</g>
<!-- [1, 3, 4, 5] -->
<g id="node8" class="node">
<title>[1, 3, 4, 5]</title>
<ellipse fill="none" stroke="black" cx="48.75" cy="-234" rx="48.99" ry="18"/>
<text text-anchor="middle" x="48.75" y="-230.3" font-family="Times,serif" font-size="14.00">[1, 3, 4, 5]</text>
</g>
<!-- [1, 3, 5, 5]&#45;&gt;[1, 3, 4, 5] -->
<g id="edge7" class="edge">
<title>[1, 3, 5, 5]&#45;&gt;[1, 3, 4, 5]</title>
<path fill="none" stroke="black" d="M48.75,-287.7C48.75,-279.98 48.75,-270.71 48.75,-262.11"/>
<polygon fill="black" stroke="black" points="52.25,-262.1 48.75,-252.1 45.25,-262.1 52.25,-262.1"/>
</g>
<!-- [1, 2, 4, 5] -->
<g id="node9" class="node">
<title>[1, 2, 4, 5]</title>
<ellipse fill="none" stroke="black" cx="48.75" cy="-162" rx="48.99" ry="18"/>
<text text-anchor="middle" x="48.75" y="-158.3" font-family="Times,serif" font-size="14.00">[1, 2, 4, 5]</text>
</g>
<!-- [1, 3, 4, 5]&#45;&gt;[1, 2, 4, 5] -->
<g id="edge8" class="edge">
<title>[1, 3, 4, 5]&#45;&gt;[1, 2, 4, 5]</title>
<path fill="none" stroke="black" d="M48.75,-215.7C48.75,-207.98 48.75,-198.71 48.75,-190.11"/>
<polygon fill="black" stroke="black" points="52.25,-190.1 48.75,-180.1 45.25,-190.1 52.25,-190.1"/>
</g>
<!-- [1, 2, 3, 5] -->
<g id="node10" class="node">
<title>[1, 2, 3, 5]</title>
<ellipse fill="none" stroke="black" cx="48.75" cy="-90" rx="48.99" ry="18"/>
<text text-anchor="middle" x="48.75" y="-86.3" font-family="Times,serif" font-size="14.00">[1, 2, 3, 5]</text>
</g>
<!-- [1, 2, 4, 5]&#45;&gt;[1, 2, 3, 5] -->
<g id="edge9" class="edge">
<title>[1, 2, 4, 5]&#45;&gt;[1, 2, 3, 5]</title>
<path fill="none" stroke="black" d="M48.75,-143.7C48.75,-135.98 48.75,-126.71 48.75,-118.11"/>
<polygon fill="black" stroke="black" points="52.25,-118.1 48.75,-108.1 45.25,-118.1 52.25,-118.1"/>
</g>
<!-- [1, 2, 3, 4] -->
<g id="node11" class="node">
<title>[1, 2, 3, 4]</title>
<ellipse fill="none" stroke="black" cx="48.75" cy="-18" rx="48.99" ry="18"/>
<text text-anchor="middle" x="48.75" y="-14.3" font-family="Times,serif" font-size="14.00">[1, 2, 3, 4]</text>
</g>
<!-- [1, 2, 3, 5]&#45;&gt;[1, 2, 3, 4] -->
<g id="edge10" class="edge">
<title>[1, 2, 3, 5]&#45;&gt;[1, 2, 3, 4]</title>
<path fill="none" stroke="black" d="M48.75,-71.7C48.75,-63.98 48.75,-54.71 48.75,-46.11"/>
<polygon fill="black" stroke="black" points="52.25,-46.1 48.75,-36.1 45.25,-46.1 52.25,-46.1"/>
</g>
</g>
</svg>
