<?xml version="1.0" encoding="UTF-8" standalone="no"?>
<!DOCTYPE svg PUBLIC "-//W3C//DTD SVG 1.1//EN"
 "http://www.w3.org/Graphics/SVG/1.1/DTD/svg11.dtd">
<!-- Generated by graphviz version 2.40.1 (20161225.0304)
 -->
<!-- Title: %3 Pages: 1 -->
<svg width="109pt" height="764pt"
 viewBox="0.00 0.00 109.39 764.00" xmlns="http://www.w3.org/2000/svg" xmlns:xlink="http://www.w3.org/1999/xlink">
<g id="graph0" class="graph" transform="scale(1 1) rotate(0) translate(4 760)">
<title>%3</title>
<polygon fill="#ffffff" stroke="transparent" points="-4,4 -4,-760 105.391,-760 105.391,4 -4,4"/>
<!-- [5, 5, 5, 5] -->
<g id="node1" class="node">
<title>[5, 5, 5, 5]</title>
<ellipse fill="none" stroke="#000000" cx="50.6955" cy="-738" rx="50.8918" ry="18"/>
<text text-anchor="middle" x="50.6955" y="-734.3" font-family="Times,serif" font-size="14.00" fill="#000000">[5, 5, 5, 5]</text>
</g>
<!-- [4, 5, 5, 5] -->
<g id="node2" class="node">
<title>[4, 5, 5, 5]</title>
<ellipse fill="none" stroke="#000000" cx="50.6955" cy="-666" rx="50.8918" ry="18"/>
<text text-anchor="middle" x="50.6955" y="-662.3" font-family="Times,serif" font-size="14.00" fill="#000000">[4, 5, 5, 5]</text>
</g>
<!-- [5, 5, 5, 5]&#45;&gt;[4, 5, 5, 5] -->
<g id="edge1" class="edge">
<title>[5, 5, 5, 5]&#45;&gt;[4, 5, 5, 5]</title>
<path fill="none" stroke="#000000" d="M50.6955,-719.8314C50.6955,-712.131 50.6955,-702.9743 50.6955,-694.4166"/>
<polygon fill="#000000" stroke="#000000" points="54.1956,-694.4132 50.6955,-684.4133 47.1956,-694.4133 54.1956,-694.4132"/>
</g>
<!-- [3, 5, 5, 5] -->
<g id="node3" class="node">
<title>[3, 5, 5, 5]</title>
<ellipse fill="none" stroke="#000000" cx="50.6955" cy="-594" rx="50.8918" ry="18"/>
<text text-anchor="middle" x="50.6955" y="-590.3" font-family="Times,serif" font-size="14.00" fill="#000000">[3, 5, 5, 5]</text>
</g>
<!-- [4, 5, 5, 5]&#45;&gt;[3, 5, 5, 5] -->
<g id="edge2" class="edge">
<title>[4, 5, 5, 5]&#45;&gt;[3, 5, 5, 5]</title>
<path fill="none" stroke="#000000" d="M50.6955,-647.8314C50.6955,-640.131 50.6955,-630.9743 50.6955,-622.4166"/>
<polygon fill="#000000" stroke="#000000" points="54.1956,-622.4132 50.6955,-612.4133 47.1956,-622.4133 54.1956,-622.4132"/>
</g>
<!-- [2, 5, 5, 5] -->
<g id="node4" class="node">
<title>[2, 5, 5, 5]</title>
<ellipse fill="none" stroke="#000000" cx="50.6955" cy="-522" rx="50.8918" ry="18"/>
<text text-anchor="middle" x="50.6955" y="-518.3" font-family="Times,serif" font-size="14.00" fill="#000000">[2, 5, 5, 5]</text>
</g>
<!-- [3, 5, 5, 5]&#45;&gt;[2, 5, 5, 5] -->
<g id="edge3" class="edge">
<title>[3, 5, 5, 5]&#45;&gt;[2, 5, 5, 5]</title>
<path fill="none" stroke="#000000" d="M50.6955,-575.8314C50.6955,-568.131 50.6955,-558.9743 50.6955,-550.4166"/>
<polygon fill="#000000" stroke="#000000" points="54.1956,-550.4132 50.6955,-540.4133 47.1956,-550.4133 54.1956,-550.4132"/>
</g>
<!-- [1, 5, 5, 5] -->
<g id="node5" class="node">
<title>[1, 5, 5, 5]</title>
<ellipse fill="none" stroke="#000000" cx="50.6955" cy="-450" rx="50.8918" ry="18"/>
<text text-anchor="middle" x="50.6955" y="-446.3" font-family="Times,serif" font-size="14.00" fill="#000000">[1, 5, 5, 5]</text>
</g>
<!-- [2, 5, 5, 5]&#45;&gt;[1, 5, 5, 5] -->
<g id="edge4" class="edge">
<title>[2, 5, 5, 5]&#45;&gt;[1, 5, 5, 5]</title>
<path fill="none" stroke="#000000" d="M50.6955,-503.8314C50.6955,-496.131 50.6955,-486.9743 50.6955,-478.4166"/>
<polygon fill="#000000" stroke="#000000" points="54.1956,-478.4132 50.6955,-468.4133 47.1956,-478.4133 54.1956,-478.4132"/>
</g>
<!-- [1, 4, 5, 5] -->
<g id="node6" class="node">
<title>[1, 4, 5, 5]</title>
<ellipse fill="none" stroke="#000000" cx="50.6955" cy="-378" rx="50.8918" ry="18"/>
<text text-anchor="middle" x="50.6955" y="-374.3" font-family="Times,serif" font-size="14.00" fill="#000000">[1, 4, 5, 5]</text>
</g>
<!-- [1, 5, 5, 5]&#45;&gt;[1, 4, 5, 5] -->
<g id="edge5" class="edge">
<title>[1, 5, 5, 5]&#45;&gt;[1, 4, 5, 5]</title>
<path fill="none" stroke="#000000" d="M50.6955,-431.8314C50.6955,-424.131 50.6955,-414.9743 50.6955,-406.4166"/>
<polygon fill="#000000" stroke="#000000" points="54.1956,-406.4132 50.6955,-396.4133 47.1956,-406.4133 54.1956,-406.4132"/>
</g>
<!-- [1, 3, 5, 5] -->
<g id="node7" class="node">
<title>[1, 3, 5, 5]</title>
<ellipse fill="none" stroke="#000000" cx="50.6955" cy="-306" rx="50.8918" ry="18"/>
<text text-anchor="middle" x="50.6955" y="-302.3" font-family="Times,serif" font-size="14.00" fill="#000000">[1, 3, 5, 5]</text>
</g>
<!-- [1, 4, 5, 5]&#45;&gt;[1, 3, 5, 5] -->
<g id="edge6" class="edge">
<title>[1, 4, 5, 5]&#45;&gt;[1, 3, 5, 5]</title>
<path fill="none" stroke="#000000" d="M50.6955,-359.8314C50.6955,-352.131 50.6955,-342.9743 50.6955,-334.4166"/>
<polygon fill="#000000" stroke="#000000" points="54.1956,-334.4132 50.6955,-324.4133 47.1956,-334.4133 54.1956,-334.4132"/>
</g>
<!-- [1, 3, 4, 5] -->
<g id="node8" class="node">
<title>[1, 3, 4, 5]</title>
<ellipse fill="none" stroke="#000000" cx="50.6955" cy="-234" rx="50.8918" ry="18"/>
<text text-anchor="middle" x="50.6955" y="-230.3" font-family="Times,serif" font-size="14.00" fill="#000000">[1, 3, 4, 5]</text>
</g>
<!-- [1, 3, 5, 5]&#45;&gt;[1, 3, 4, 5] -->
<g id="edge7" class="edge">
<title>[1, 3, 5, 5]&#45;&gt;[1, 3, 4, 5]</title>
<path fill="none" stroke="#000000" d="M50.6955,-287.8314C50.6955,-280.131 50.6955,-270.9743 50.6955,-262.4166"/>
<polygon fill="#000000" stroke="#000000" points="54.1956,-262.4132 50.6955,-252.4133 47.1956,-262.4133 54.1956,-262.4132"/>
</g>
<!-- [1, 2, 4, 5] -->
<g id="node9" class="node">
<title>[1, 2, 4, 5]</title>
<ellipse fill="none" stroke="#000000" cx="50.6955" cy="-162" rx="50.8918" ry="18"/>
<text text-anchor="middle" x="50.6955" y="-158.3" font-family="Times,serif" font-size="14.00" fill="#000000">[1, 2, 4, 5]</text>
</g>
<!-- [1, 3, 4, 5]&#45;&gt;[1, 2, 4, 5] -->
<g id="edge8" class="edge">
<title>[1, 3, 4, 5]&#45;&gt;[1, 2, 4, 5]</title>
<path fill="none" stroke="#000000" d="M50.6955,-215.8314C50.6955,-208.131 50.6955,-198.9743 50.6955,-190.4166"/>
<polygon fill="#000000" stroke="#000000" points="54.1956,-190.4132 50.6955,-180.4133 47.1956,-190.4133 54.1956,-190.4132"/>
</g>
<!-- [1, 2, 3, 5] -->
<g id="node10" class="node">
<title>[1, 2, 3, 5]</title>
<ellipse fill="none" stroke="#000000" cx="50.6955" cy="-90" rx="50.8918" ry="18"/>
<text text-anchor="middle" x="50.6955" y="-86.3" font-family="Times,serif" font-size="14.00" fill="#000000">[1, 2, 3, 5]</text>
</g>
<!-- [1, 2, 4, 5]&#45;&gt;[1, 2, 3, 5] -->
<g id="edge9" class="edge">
<title>[1, 2, 4, 5]&#45;&gt;[1, 2, 3, 5]</title>
<path fill="none" stroke="#000000" d="M50.6955,-143.8314C50.6955,-136.131 50.6955,-126.9743 50.6955,-118.4166"/>
<polygon fill="#000000" stroke="#000000" points="54.1956,-118.4132 50.6955,-108.4133 47.1956,-118.4133 54.1956,-118.4132"/>
</g>
<!-- [1, 2, 3, 4] -->
<g id="node11" class="node">
<title>[1, 2, 3, 4]</title>
<ellipse fill="none" stroke="#000000" cx="50.6955" cy="-18" rx="50.8918" ry="18"/>
<text text-anchor="middle" x="50.6955" y="-14.3" font-family="Times,serif" font-size="14.00" fill="#000000">[1, 2, 3, 4]</text>
</g>
<!-- [1, 2, 3, 5]&#45;&gt;[1, 2, 3, 4] -->
<g id="edge10" class="edge">
<title>[1, 2, 3, 5]&#45;&gt;[1, 2, 3, 4]</title>
<path fill="none" stroke="#000000" d="M50.6955,-71.8314C50.6955,-64.131 50.6955,-54.9743 50.6955,-46.4166"/>
<polygon fill="#000000" stroke="#000000" points="54.1956,-46.4132 50.6955,-36.4133 47.1956,-46.4133 54.1956,-46.4132"/>
</g>
</g>
</svg>
